<svg id="visual" viewBox="0 0 600 900" width="600" height="900" xmlns="http://www.w3.org/2000/svg" xmlns:xlink="http://www.w3.org/1999/xlink" version="1.1"><path d="M0 235L50 254.5C100 274 200 313 300 301C400 289 500 226 550 194.5L600 163L600 0L550 0C500 0 400 0 300 0C200 0 100 0 50 0L0 0Z" fill="#4da994"></path><path d="M0 280L50 295C100 310 200 340 300 329.5C400 319 500 268 550 242.5L600 217L600 161L550 192.5C500 224 400 287 300 299C200 311 100 272 50 252.5L0 233Z" fill="#54b59f"></path><path d="M0 343L50 347.5C100 352 200 361 300 343C400 325 500 280 550 257.5L600 235L600 215L550 240.5C500 266 400 317 300 327.5C200 338 100 308 50 293L0 278Z" fill="#5bc1aa"></path><path d="M0 343L50 359.5C100 376 200 409 300 409C400 409 500 376 550 359.5L600 343L600 233L550 255.5C500 278 400 323 300 341C200 359 100 350 50 345.5L0 341Z" fill="#63cdb6"></path><path d="M0 379L50 404.5C100 430 200 481 300 491.5C400 502 500 472 550 457L600 442L600 341L550 357.5C500 374 400 407 300 407C200 407 100 374 50 357.5L0 341Z" fill="#6adac1"></path><path d="M0 451L50 466C100 481 200 511 300 527.5C400 544 500 547 550 548.5L600 550L600 440L550 455C500 470 400 500 300 489.5C200 479 100 428 50 402.5L0 377Z" fill="#74e1c9"></path><path d="M0 514L50 520C100 526 200 538 300 544C400 550 500 550 550 550L600 550L600 548L550 546.5C500 545 400 542 300 525.5C200 509 100 479 50 464L0 449Z" fill="#80e3cd"></path><path d="M0 622L50 616C100 610 200 598 300 605.5C400 613 500 640 550 653.5L600 667L600 548L550 548C500 548 400 548 300 542C200 536 100 524 50 518L0 512Z" fill="#8be6d1"></path><path d="M0 865L50 869.5C100 874 200 883 300 872.5C400 862 500 832 550 817L600 802L600 665L550 651.5C500 638 400 611 300 603.5C200 596 100 608 50 614L0 620Z" fill="#96e8d5"></path><path d="M0 901L50 901C100 901 200 901 300 901C400 901 500 901 550 901L600 901L600 800L550 815C500 830 400 860 300 870.5C200 881 100 872 50 867.5L0 863Z" fill="#a0ead9"></path></svg>